<svg xmlns="http://www.w3.org/2000/svg" width="205" height="37" fill="none"><path fill="#863DFF" d="M7.319 14.637H0v7.319h7.319v-7.319z"/><path fill="#863DFF" d="M21.963 14.637H36.6V7.32H7.317v7.318h14.645zm-7.319 14.645h14.637V36.6h7.32v-7.32l-7.32-7.318H7.318v7.319h7.326z"/><path fill="#863DFF" d="M7.319 29.282H0V36.6h7.319v-7.319z"/><path fill="#fff" d="M146.446 7.318h-7.319v7.32h14.637v-7.32h-7.318zm-14.645 14.644V36.6h7.325V14.637h-7.325v7.325zM109.836 7.319H95.191v7.318h21.964V7.32h-7.319zm0 14.644h-7.319v7.319h7.319v-7.32zm7.318-7.326V36.6h7.319V14.637h-7.319zm-29.281 7.326V36.6h7.319V14.637h-7.319v7.326zm-36.628-7.326V7.318H43.92v21.963h7.325V14.637zm21.956-7.319v21.963h7.326V7.318H73.2zM58.565 29.281h-7.319V36.6h7.319v-7.319zm14.636 0h-7.318V36.6h7.319v-7.319zm-7.318-14.644h-7.318V29.28h7.318V14.637z"/><path fill="#863DFF" d="M205 0h-7.318v7.319H205V0z"/><path fill="#fff" d="M190.362 14.637V36.6h7.318V14.637h-7.318zm-29.282 7.326V36.6h7.319V14.637h-7.319v7.326zm29.282-14.644h-7.319v7.318h7.319V7.32zm-14.645 0h-7.318v7.318h7.318V7.32zm.008 14.644v7.318h7.319V14.637h-7.319v7.326z"/></svg>